Ground reaction force (.MOT) by Lee-Son Toolkit
nRows=75
nColumns=19

name Static_grf.mot
datacolumns 19
datarows 75
range 1.32 1.394
endheader
time	1_ground_force_vx	1_ground_force_vy	1_ground_force_vz	1_ground_force_px	1_ground_force_py	1_ground_force_pz	2_ground_force_vx	2_ground_force_vy	2_ground_force_vz	2_ground_force_px	2_ground_force_py	2_ground_force_pz	1_ground_torque_x	1_ground_torque_y	1_ground_torque_z	2_ground_torque_x	2_ground_torque_y	2_ground_torque_z
1.32	28.9436	315.899	-3.70479	0.367709	0	0.279572	-35.8953	325.673	4.19113	0.755831	0	0.279666	0	-3.40788	0	0	3.34307	0
1.321	29.0394	315.54	-3.76737	0.368075	0	0.27647	-36.1014	326.29	4.18819	0.756019	0	0.279382	0	-3.30275	0	0	3.34877	0
1.322	28.7349	314.492	-3.7414	0.36829	0	0.276547	-35.9909	322.808	3.82099	0.754438	0	0.279353	0	-3.30139	0	0	3.7074	0
1.323	28.7923	315.89	-3.61304	0.367908	0	0.276393	-36.0481	324.722	4.06054	0.755396	0	0.2797	0	-3.253	0	0	3.53703	0
1.324	28.9525	318.422	-3.91133	0.36714	0	0.276266	-36.2657	324.633	4.28458	0.754608	0	0.279315	0	-3.32324	0	0	3.40254	0
1.325	28.9071	315.537	-3.96738	0.366722	0	0.276198	-36.1051	326.28	5.21854	0.756313	0	0.279617	0	-3.30509	0	0	3.2367	0
1.326	28.8659	315.016	-3.87773	0.367891	0	0.276309	-34.89	325.587	3.83613	0.756264	0	0.278904	0	-3.28771	0	0	3.42138	0
1.327	28.8551	316.502	-4.03679	0.367438	0	0.276576	-36.3148	327.523	3.84797	0.756771	0	0.279482	0	-3.33127	0	0	3.4868	0
1.328	28.238	315.631	-3.98997	0.367937	0	0.276654	-36.7854	324.814	3.85075	0.755463	0	0.278893	0	-3.30432	0	0	3.39597	0
1.329	28.889	314.758	-4.1181	0.368451	0	0.277108	-36.0277	325.419	4.03372	0.75559	0	0.278994	0	-3.36604	0	0	3.37731	0
1.33	28.7557	317.987	-4.19772	0.36707	0	0.276568	-36.5699	325.169	4.32309	0.755807	0	0.278742	0	-3.36177	0	0	3.52775	0
1.331	28.8586	316.066	-4.28173	0.367819	0	0.276461	-36.1788	324.718	4.03537	0.755255	0	0.279339	0	-3.37223	0	0	3.38025	0
1.332	28.6638	315.544	-4.3502	0.3683	0	0.276063	-36.4894	324.713	3.96312	0.75533	0	0.279003	0	-3.30226	0	0	3.1977	0
1.333	28.6198	315.548	-4.81504	0.368293	0	0.276614	-36.7407	324.726	3.96316	0.75549	0	0.278882	0	-3.3669	0	0	3.39251	0
1.334	28.5989	315.285	-4.61215	0.368149	0	0.276794	-36.0966	325.596	3.89805	0.755749	0	0.278941	0	-3.34262	0	0	3.40079	0
1.335	28.5132	314.94	-4.99121	0.369064	0	0.276845	-36.2016	324.64	3.60816	0.755346	0	0.278624	0	-3.38043	0	0	3.44862	0
1.336	28.5528	314.771	-4.47829	0.368461	0	0.280294	-35.8694	325.156	3.83401	0.755582	0	0.27927	0	-3.46603	0	0	3.42879	0
1.337	28.708	315.547	-4.69989	0.367848	0	0.277083	-35.8924	324.196	4.27081	0.752602	0	0.278752	0	-3.37502	0	0	3.33471	0
1.338	28.6003	312.322	-4.84615	0.369124	0	0.277171	-36.1115	321.395	4.02144	0.754049	0	0.279268	0	-3.25824	0	0	3.41982	0
1.339	29.6846	316.071	-4.99147	0.367803	0	0.276948	-35.5786	324.888	3.87998	0.755918	0	0.279553	0	-3.42473	0	0	3.42327	0
1.34	28.4624	315.636	-4.61243	0.368238	0	0.277003	-35.7325	324.456	4.12445	0.755659	0	0.278343	0	-3.353	0	0	3.34457	0
1.341	28.6236	315.687	-4.96879	0.36793	0	0.276729	-36.3531	323.845	3.96714	0.755208	0	0.278992	0	-4.23942	0	0	3.35684	0
1.342	27.68	316.248	-4.99443	0.36772	0	0.276825	-36.2434	324.109	3.85493	0.755342	0	0.278851	0	-3.38778	0	0	3.38576	0
1.343	27.979	314.853	-4.7644	0.368297	0	0.277299	-36.4915	324.287	3.98638	0.755452	0	0.278447	0	-3.33817	0	0	3.345	0
1.344	28.4338	316.773	-5.28523	0.367736	0	0.276873	-36.0758	325.165	3.78482	0.756139	0	0.278399	0	-3.43302	0	0	3.47152	0
1.345	28.2172	315.813	-5.05816	0.36823	0	0.277158	-36.221	323.851	3.89995	0.755356	0	0.278474	0	-3.40628	0	0	3.41936	0
1.346	27.9348	314.674	-4.76659	0.368513	0	0.276876	-36.4457	324.114	3.91997	0.755354	0	0.278291	0	-3.39322	0	0	3.37515	0
1.347	28.5674	316.686	-5.12733	0.367817	0	0.277136	-36.0676	324.285	4.23582	0.755481	0	0.278332	0	-3.41851	0	0	3.36928	0
1.348	29.1106	315.458	-5.06144	0.368392	0	0.276311	-36.3346	323.939	3.87553	0.755592	0	0.278379	0	-3.42171	0	0	3.40795	0
1.349	28.2381	315.374	-3.40723	0.369192	0	0.277402	-36.2292	324.464	4.05291	0.756112	0	0.278184	0	-3.21902	0	0	3.40829	0
1.35	28.1462	316.337	-5.01494	0.3682	0	0.277247	-35.9301	326.733	3.89199	0.756962	0	0.278412	0	-3.4164	0	0	3.36944	0
1.351	28.4234	318.437	-5.00025	0.36725	0	0.276974	-36.5438	324.905	3.73715	0.756053	0	0.278309	0	-3.29633	0	0	3.43738	0
1.352	28.3391	314.24	-5.09798	0.368949	0	0.277177	-36.0051	323.065	3.83968	0.75371	0	0.277999	0	-3.43819	0	0	3.37471	0
1.353	29.5492	316.331	-4.81831	0.368019	0	0.27633	-35.8024	324.549	3.83104	0.756025	0	0.278091	0	-3.39296	0	0	3.40285	0
1.354	28.3693	316.337	-5.1272	0.368199	0	0.277081	-36.3309	323.328	3.67275	0.755655	0	0.277915	0	-3.42632	0	0	3.37664	0
1.355	28.4878	315.373	-5.65881	0.368009	0	0.276968	-36.038	323.07	3.31803	0.75543	0	0.277928	0	-3.54139	0	0	3.50223	0
1.356	28.1557	315.292	-4.90059	0.368302	0	0.277153	-36.2509	323.857	3.85265	0.756234	0	0.278288	0	-3.29333	0	0	3.54069	0
1.357	28.2057	316.765	-4.7712	0.36792	0	0.277122	-35.876	322.096	4.01529	0.755315	0	0.278289	0	-3.56479	0	0	3.38158	0
1.358	28.3411	323.587	-4.70571	0.365606	0	0.276702	-36.4826	322.453	4.01189	0.755214	0	0.27822	0	-3.29765	0	0	3.40461	0
1.359	28.5427	316.602	-4.77753	0.371421	0	0.27698	-36.1793	323.763	4.27883	0.755751	0	0.277901	0	-3.45603	0	0	3.37242	0
1.36	26.6913	317.12	-4.63797	0.367287	0	0.277313	-35.4573	322.882	3.85726	0.755905	0	0.27801	0	-3.41822	0	0	3.38594	0
1.361	29.2516	317.032	-4.63456	0.367921	0	0.277648	-36.6904	322.896	3.67188	0.755869	0	0.278163	0	-3.4679	0	0	3.48318	0
1.362	28.234	319.123	-4.44618	0.367083	0	0.276767	-36.2311	324.899	3.78049	0.756482	0	0.277989	0	-3.47964	0	0	3.33502	0
1.363	28.3216	316.239	-3.81275	0.367319	0	0.276637	-36.2189	322.81	3.20229	0.755987	0	0.277649	0	-3.32527	0	0	3.49489	0
1.364	28.304	315.891	-5.37141	0.367329	0	0.276693	-36.1777	323.584	4.27895	0.755788	0	0.278205	0	-3.57851	0	0	3.33901	0
1.365	27.4999	316.069	-4.52555	0.367977	0	0.276918	-36.2552	321.931	3.69824	0.755229	0	0.277525	0	-3.42713	0	0	3.39748	0
1.366	28.2744	316.423	-4.35404	0.371426	0	0.276885	-36.0407	322.974	4.14547	0.75581	0	0.277899	0	-3.46997	0	0	3.36955	0
1.367	28.06	316.335	-6.87239	0.368555	0	0.276111	-35.96	324.2	3.87375	0.756393	0	0.277986	0	-3.73986	0	0	3.40496	0
1.368	28.074	313.534	-4.54074	0.369221	0	0.276831	-36.1179	323.237	3.80194	0.757426	0	0.277758	0	-3.45701	0	0	3.39636	0
1.369	28.1651	316.417	-4.26155	0.368292	0	0.276552	-34.9425	322.526	3.90572	0.756204	0	0.278506	0	-3.38838	0	0	3.42658	0
1.37	28.0626	315.363	-5.25893	0.366771	0	0.276408	-35.9925	322.715	3.36113	0.75582	0	0.277913	0	-3.57506	0	0	3.43028	0
1.371	28.2346	316.151	-4.99324	0.366826	0	0.276583	-36.0634	323.154	3.47265	0.755915	0	0.27801	0	-3.53575	0	0	3.45833	0
1.372	28.3428	319.114	-4.40409	0.367069	0	0.276293	-36.1897	321.751	3.96879	0.755455	0	0.2782	0	-3.60777	0	0	3.43269	0
1.373	27.7023	315.798	-4.48788	0.367865	0	0.275529	-36.1122	323.245	3.80627	0.75623	0	0.277276	0	-3.45318	0	0	3.43452	0
1.374	28.1286	315.531	-4.45092	0.368207	0	0.274138	-36.241	322.629	3.76193	0.756025	0	0.277582	0	-3.41844	0	0	3.38941	0
1.375	28.2032	314.935	-6.78353	0.369667	0	0.2755	-35.9475	322.449	3.76579	0.755798	0	0.278066	0	-3.74476	0	0	3.41264	0
1.376	28.4365	315.711	-4.10616	0.368023	0	0.275881	-36.1534	322.632	3.49291	0.756311	0	0.277574	0	-3.41648	0	0	3.46489	0
1.377	28.1856	315.971	-2.92552	0.36886	0	0.27618	-36.3326	322.718	3.58152	0.756293	0	0.277735	0	-3.3221	0	0	3.43631	0
1.378	28.4381	315.877	-4.18796	0.3679	0	0.273469	-38.3788	321.067	3.71263	0.755032	0	0.278812	0	-3.36556	0	0	3.48186	0
1.379	28.5468	312.74	-4.03047	0.36889	0	0.275768	-36.1489	322.104	3.74135	0.755956	0	0.277649	0	-3.39007	0	0	3.42569	0
1.38	28.6815	315.45	-4.12312	0.368307	0	0.276643	-36.4581	321.405	3.74215	0.75575	0	0.278146	0	-3.48426	0	0	3.4581	0
1.381	27.9951	315.187	-4.08201	0.367865	0	0.275889	-35.9913	322.011	3.7412	0.756114	0	0.277742	0	-3.39813	0	0	3.36655	0
1.382	28.29	314.308	-3.94813	0.36803	0	0.275366	-35.8894	321.485	4.15227	0.754347	0	0.277687	0	-3.42148	0	0	3.30378	0
1.383	28.3922	315.708	-4.32963	0.367532	0	0.27564	-36.2567	321.411	3.75991	0.755891	0	0.275917	0	-3.4702	0	0	3.3118	0
1.384	28.0657	314.57	-4.03936	0.367991	0	0.2752	-35.721	321.834	3.83334	0.75595	0	0.277728	0	-3.43543	0	0	3.36396	0
1.385	28.3334	314.838	-3.99394	0.367892	0	0.275475	-36.0594	324.991	3.95898	0.757154	0	0.277594	0	-3.30512	0	0	3.43634	0
1.386	29.0883	314.832	-3.88378	0.368113	0	0.275186	-36.7029	321.237	3.87412	0.755502	0	0.277051	0	-3.39333	0	0	3.40791	0
1.387	29.4481	314.565	-4.04602	0.368051	0	0.273916	-36.5534	322.362	3.64894	0.756247	0	0.278564	0	-3.38763	0	0	3.39989	0
1.388	28.6197	314.826	-3.93039	0.367658	0	0.274754	-36.4858	322.281	3.60587	0.755955	0	0.278138	0	-3.46738	0	0	3.47369	0
1.389	28.446	311.52	-4.16088	0.369112	0	0.27567	-36.3348	322.977	3.71318	0.756619	0	0.27751	0	-3.33689	0	0	3.34353	0
1.39	28.2724	313.695	-4.12664	0.368236	0	0.275013	-36.1369	329.278	3.81222	0.759199	0	0.277877	0	-3.4556	0	0	3.44451	0
1.391	28.5109	314.659	-4.12629	0.367922	0	0.275553	-36.5477	321.493	3.78494	0.755751	0	0.277668	0	-3.42707	0	0	3.3991	0
1.392	28.1748	314.92	-4.15031	0.367686	0	0.275396	-36.2525	323.848	3.93487	0.757133	0	0.277585	0	-3.44977	0	0	3.2981	0
1.393	28.6477	314.13	-3.72488	0.367412	0	0.275087	-36.0817	322.097	3.80911	0.756105	0	0.278262	0	-3.37649	0	0	3.39368	0
1.394	28.6223	315.174	-4.2101	0.367283	0	0.272856	-36.3232	321.398	4.00996	0.755856	0	0.277883	0	-3.34356	0	0	3.33349	0
